<mxfile host="app.diagrams.net" modified="2023-05-29T13:53:33.378Z" agent="Mozilla/5.0 (Macintosh; Intel Mac OS X 10_15_7) AppleWebKit/537.36 (KHTML, like Gecko) Chrome/113.0.0.0 Safari/537.36" version="21.3.5" etag="Zamzwi0z2N_KS66p5-s3" type="github">
  <diagram name="Page-1" id="GpKsj-bvh34qnN1JUlYf">
    <mxGraphModel>
      <root>
        <mxCell id="0" />
        <mxCell id="1" parent="0" />
      </root>
    </mxGraphModel>
  </diagram>
</mxfile>
